<?xml version="1.0" standalone="no"?>
<!DOCTYPE svg PUBLIC "-//W3C//DTD SVG 20010904//EN"
 "http://www.w3.org/TR/2001/REC-SVG-20010904/DTD/svg10.dtd">
<svg version="1.0" xmlns="http://www.w3.org/2000/svg"
 width="280.000000pt" height="269.600000pt" viewBox="0 0 280.000000 269.600000"
 preserveAspectRatio="xMidYMid meet">
<metadata>
Created by potrace 1.13, written by Peter Selinger 2001-2015
</metadata>
<g transform="translate(0.000000,269.600000) scale(0.080000,-0.080000)"
fill="#000000" stroke="none">
<path d="M1692 3277 c-111 -172 -193 -242 -346 -296 -149 -53 -201 -86 -314
-198 -75 -75 -116 -109 -155 -125 -139 -59 -225 -135 -340 -299 -128 -184
-219 -252 -409 -305 -51 -14 -99 -27 -106 -30 -8 -2 11 -24 45 -53 106 -88
163 -163 192 -251 6 -19 15 -102 20 -185 12 -179 32 -258 101 -395 41 -81 50
-109 50 -152 1 -122 44 -245 153 -430 127 -217 152 -286 144 -407 -3 -47 -9
-99 -13 -114 l-7 -29 49 25 c178 90 272 97 457 38 185 -59 199 -61 540 -61
343 0 367 3 557 64 169 55 259 47 423 -35 32 -17 60 -29 62 -27 2 2 -3 32 -12
68 -28 123 -6 219 93 395 162 288 193 366 197 495 2 61 7 84 30 125 50 87 91
196 108 280 5 28 14 113 18 191 7 109 14 152 30 189 31 69 93 147 167 207 35
28 64 54 64 57 0 4 -35 14 -77 24 -98 22 -243 92 -308 150 -28 24 -88 98 -135
163 -47 66 -104 138 -127 162 -54 54 -148 115 -221 143 -42 16 -67 34 -92 67
-44 55 -154 152 -214 187 -25 15 -89 42 -142 61 -53 18 -116 45 -139 58 -57
34 -159 145 -224 244 -30 45 -57 82 -60 81 -3 0 -30 -37 -59 -82z m153 -137
c79 -98 162 -160 261 -194 168 -59 221 -91 330 -201 88 -88 114 -108 195 -148
122 -60 180 -112 286 -260 48 -67 109 -142 134 -167 61 -58 154 -113 251 -147
l76 -28 -64 -67 c-108 -115 -129 -172 -143 -393 -11 -175 -30 -245 -102 -386
-42 -82 -49 -104 -49 -155 0 -126 -38 -226 -166 -445 -97 -167 -134 -267 -134
-366 0 -40 -1 -73 -3 -73 -2 0 -37 12 -78 26 -113 40 -204 37 -339 -10 -176
-61 -213 -65 -541 -66 -162 0 -321 5 -354 11 -33 6 -116 29 -185 51 -157 51
-235 55 -353 14 -42 -14 -78 -26 -80 -26 -1 0 -2 33 -2 73 -1 105 -32 189
-146 388 -114 199 -150 294 -153 409 -1 68 -6 84 -48 165 -43 85 -79 183 -92
250 -4 17 -11 97 -16 179 -8 138 -11 153 -43 220 -21 45 -56 95 -95 136 -34
36 -62 65 -62 66 0 1 35 14 77 29 164 57 250 127 372 298 118 168 206 244 340
297 38 14 67 36 95 68 111 129 199 192 338 241 48 16 106 40 130 52 55 28 156
125 221 213 l51 69 15 -24 c9 -13 43 -58 76 -99z"/>
<path d="M1704 3098 c-55 -68 -137 -139 -197 -170 -22 -11 -83 -36 -136 -55
-128 -46 -175 -78 -279 -188 -70 -75 -98 -98 -142 -115 -134 -52 -198 -107
-315 -270 -120 -167 -225 -259 -355 -310 -19 -7 -37 -15 -38 -16 -2 -1 14 -25
36 -53 83 -105 101 -169 121 -421 11 -146 38 -236 106 -355 43 -75 45 -82 45
-157 0 -110 31 -196 140 -388 103 -179 134 -250 151 -342 l12 -65 51 13 c98
26 181 19 336 -31 175 -56 237 -63 565 -59 282 2 277 2 524 78 95 30 183 33
274 12 l57 -13 0 33 c0 68 50 190 146 358 116 202 145 278 152 401 4 82 9 97
48 170 73 136 94 216 105 392 12 202 30 257 135 401 9 12 15 24 13 25 -2 2
-38 19 -79 39 -102 50 -193 128 -265 228 -163 227 -217 276 -354 327 -57 21
-75 33 -106 74 -83 110 -194 190 -315 230 -151 50 -248 116 -344 235 l-44 53
-48 -61z m93 -46 c76 -90 195 -166 323 -207 108 -34 168 -74 268 -180 85 -89
106 -105 167 -130 128 -52 179 -98 299 -268 85 -121 183 -214 281 -268 41 -22
73 -44 70 -48 -2 -4 -20 -31 -39 -59 -55 -82 -75 -158 -86 -327 -13 -197 -39
-287 -117 -419 -34 -56 -37 -68 -38 -146 -3 -124 -32 -204 -151 -406 -76 -129
-122 -230 -136 -294 l-11 -55 -131 0 c-128 0 -134 -1 -252 -42 -158 -54 -219
-61 -529 -58 -282 3 -311 7 -480 65 -100 35 -251 51 -316 32 l-37 -10 -16 67
c-20 81 -57 162 -141 307 -116 198 -145 280 -145 402 0 67 -3 79 -39 140 -80
140 -106 232 -116 425 -4 65 -13 144 -21 175 -16 60 -63 152 -96 189 l-20 21
79 41 c109 57 179 123 280 263 48 66 110 142 137 170 48 47 157 108 218 123
16 4 50 35 89 81 101 121 157 160 306 214 136 50 200 90 281 176 37 39 70 72
73 73 3 0 24 -21 46 -47z"/>
<path d="M1681 2593 c-17 -43 -31 -81 -31 -85 0 -16 30 -7 40 12 8 14 21 20
46 20 27 0 37 -5 41 -20 4 -17 43 -30 43 -15 0 2 -15 39 -34 82 -48 108 -64
108 -105 6z m67 2 c16 -35 16 -35 -13 -35 -27 0 -28 3 -19 38 8 29 18 28 32
-3z"/>
<path d="M1495 2644 c-6 -2 -8 -28 -7 -59 2 -30 0 -55 -5 -55 -4 0 -21 21 -36
46 -21 35 -32 45 -50 42 -26 -4 -27 -26 -2 -111 10 -35 22 -57 31 -57 18 0 18
17 -1 70 -24 68 -17 69 22 4 26 -45 40 -60 53 -57 15 4 17 14 13 71 -5 76 8
70 28 -11 6 -28 16 -46 23 -44 14 5 12 39 -9 110 -16 55 -27 65 -60 51z"/>
<path d="M1926 2638 c-38 -123 -43 -147 -30 -152 16 -6 19 -2 34 53 13 50 21
46 45 -26 25 -80 46 -73 73 24 12 42 19 80 16 85 -12 19 -24 5 -40 -49 l-17
-58 -21 67 c-16 51 -26 68 -39 68 -10 0 -19 -6 -21 -12z"/>
<path d="M1188 2524 c-21 -11 -28 -22 -28 -45 0 -37 28 -50 83 -37 42 9 57 5
57 -18 0 -21 -46 -40 -63 -26 -8 7 -18 8 -27 1 -13 -8 -12 -12 5 -25 38 -29
115 8 115 55 0 43 -21 54 -85 46 -46 -5 -55 -4 -55 9 0 16 42 32 57 23 5 -3
15 -1 23 4 13 8 13 10 0 19 -21 14 -50 12 -82 -6z"/>
<path d="M2235 2509 c-27 -33 -28 -56 -3 -51 25 4 41 -23 28 -47 -18 -34 -56
-26 -52 11 2 11 -27 18 -34 7 -8 -14 22 -56 47 -64 28 -9 73 23 77 56 3 16 -4
30 -24 46 -23 18 -25 23 -12 28 9 4 27 -1 40 -9 23 -15 38 -13 38 5 0 5 -18
18 -39 29 l-40 20 -26 -31z"/>
<path d="M1015 2196 c-45 -17 -72 -48 -81 -92 -12 -62 -4 -77 51 -89 28 -6 60
-17 72 -23 29 -16 53 -62 53 -102 0 -32 -19 -120 -26 -120 -3 0 -27 18 -54 39
-124 98 -247 75 -285 -53 -8 -27 -15 -51 -15 -53 0 -2 25 -3 55 -3 31 0 69 -7
85 -15 61 -32 91 -103 51 -125 -11 -5 -52 -10 -91 -10 -112 0 -152 -28 -178
-122 l-10 -38 66 6 c92 9 136 -10 162 -68 35 -78 20 -198 -25 -198 -7 0 -24
15 -36 33 -39 55 -57 60 -94 22 -31 -30 -32 -69 -3 -89 12 -9 56 -27 99 -41
88 -30 115 -54 125 -111 6 -38 3 -45 -31 -83 -34 -37 -37 -44 -27 -66 16 -34
48 -39 111 -17 40 15 62 17 90 11 69 -16 101 -11 157 27 96 63 251 124 316
124 17 0 17 2 -2 37 -27 51 -26 118 6 249 28 116 27 163 -3 197 -25 28 -75 47
-123 47 -87 0 -150 52 -169 140 -6 28 -11 138 -11 244 0 216 -10 274 -58 319
-36 35 -116 45 -177 23z m171 -369 c2 -210 12 -294 45 -359 19 -38 25 -40 104
-53 104 -17 168 -86 169 -183 0 -31 -6 -74 -13 -96 -13 -37 -75 -116 -91 -116
-5 0 1 24 12 53 27 68 30 172 5 210 -26 40 -58 57 -118 63 -87 9 -94 12 -116
51 -34 62 -45 130 -45 278 1 149 27 355 45 355 1 0 3 -91 3 -203z"/>
<path d="M2345 2196 c-73 -32 -100 -131 -92 -338 11 -294 -23 -372 -172 -388
-154 -17 -176 -65 -125 -276 29 -121 28 -180 -4 -223 l-20 -27 67 -12 c71 -13
203 -72 277 -123 44 -30 49 -31 108 -24 86 11 103 9 147 -11 44 -19 79 -11 98
24 9 16 4 26 -24 55 -36 37 -41 57 -29 117 8 38 41 60 132 91 35 12 75 32 90
44 26 23 26 25 12 52 -9 15 -28 34 -43 43 -31 16 -36 13 -78 -50 -14 -22 -19
-23 -43 -12 -25 11 -26 15 -26 89 0 132 52 181 178 170 l63 -6 -6 32 c-20 92
-70 127 -187 127 -56 0 -81 4 -92 16 -21 21 -20 32 6 70 29 42 76 64 138 64
45 0 50 2 50 23 -1 40 -38 106 -72 127 -62 37 -153 18 -236 -50 -22 -18 -40
-26 -46 -20 -5 5 -11 42 -14 82 -4 69 -2 76 22 105 20 23 41 35 81 44 29 6 59
15 65 19 20 12 3 95 -26 130 -40 47 -135 64 -199 36z m6 -276 c18 -96 18 -399
1 -456 -6 -23 -22 -56 -35 -75 -21 -31 -28 -35 -89 -41 -36 -3 -79 -13 -95
-22 -62 -31 -81 -138 -43 -246 10 -30 17 -57 14 -59 -2 -2 -19 12 -38 32 -57
60 -82 173 -55 244 25 67 116 123 200 123 35 0 63 35 85 104 13 38 18 108 22
281 2 127 8 221 12 210 4 -11 14 -54 21 -95z"/>
<path d="M1627 2135 c-20 -79 -44 -123 -121 -220 -31 -38 -56 -77 -56 -87 0
-21 3 -21 50 -8 75 22 102 -28 28 -52 -51 -16 -52 -29 -3 -43 l36 -11 -31 -22
c-38 -28 -38 -38 0 -61 l31 -18 -26 -17 c-33 -22 -32 -42 3 -50 56 -13 83 -30
98 -58 8 -16 22 -93 30 -171 16 -145 14 -261 -7 -370 -10 -51 -10 -60 6 -77
23 -26 41 -25 56 2 20 37 5 275 -25 395 l-25 102 21 51 21 52 -27 55 -27 56
35 29 c41 33 53 78 35 123 l-12 30 -7 -33 c-10 -41 -22 -55 -46 -50 -53 10
-61 131 -20 305 29 125 32 171 13 197 -12 16 -15 11 -30 -49z"/>
<path d="M1846 1993 l-68 -197 16 -99 c25 -151 30 -235 16 -297 -7 -31 -15
-178 -19 -340 -3 -157 -9 -290 -14 -297 -5 -8 -30 -3 -90 19 -87 32 -206 57
-272 57 -37 1 -44 -4 -99 -71 -33 -40 -59 -80 -59 -89 1 -9 17 -51 37 -92 l35
-74 61 -7 c99 -11 209 -44 297 -87 l82 -41 53 30 c75 43 189 79 293 93 l90 12
22 47 c12 26 29 65 38 88 l17 41 -64 76 -63 77 -78 -7 c-66 -5 -173 -29 -227
-49 -13 -5 -15 18 -15 176 0 101 -3 226 -5 278 -7 152 23 239 135 394 80 111
85 124 56 147 -23 18 -23 20 -7 59 17 43 10 81 -18 97 -8 4 -16 24 -18 43 -2
22 -8 34 -16 32 -9 -1 -12 9 -10 35 1 22 -3 38 -10 41 -7 2 -12 23 -12 53 0
27 -3 49 -7 49 -5 0 -39 -89 -77 -197z m150 -122 c-9 -14 -43 -14 -52 1 -4 6
1 17 12 25 15 11 20 11 32 -1 8 -8 11 -19 8 -25z m-118 -61 c28 -42 30 -108 4
-141 -38 -46 -62 -1 -62 117 0 75 18 83 58 24z m107 -85 c0 -22 -31 -33 -47
-17 -17 17 -1 44 24 40 15 -2 23 -10 23 -23z"/>
<path d="M1377 347 l-25 -62 30 -12 c42 -18 85 -16 92 3 3 9 3 20 0 26 -3 5 1
17 10 27 24 26 11 48 -38 64 l-43 15 -26 -61z m78 20 c22 -17 12 -37 -15 -30
-24 6 -34 19 -25 33 8 13 18 13 40 -3z m-7 -71 c2 -10 -3 -16 -15 -16 -28 0
-47 16 -40 34 8 20 50 7 55 -18z"/>
<path d="M2043 387 c-17 -7 -34 -15 -38 -18 -10 -11 39 -119 54 -119 9 0 11 6
6 18 -4 9 -9 23 -12 30 -7 16 26 15 57 -3 14 -8 31 -14 38 -15 22 0 12 18 -17
31 -24 11 -27 16 -17 31 8 13 8 23 0 36 -14 22 -31 24 -71 9z m41 -44 c-21
-15 -45 -14 -51 3 -6 17 39 34 55 21 11 -9 11 -13 -4 -24z"/>
<path d="M1545 335 c-30 -29 -32 -68 -5 -95 42 -42 120 -11 120 48 0 35 -9 48
-43 61 -39 15 -45 14 -72 -14z m83 -47 c-2 -17 -11 -36 -20 -42 -44 -27 -79
48 -37 78 32 22 61 4 57 -36z"/>
<path d="M1890 349 c-30 -12 -40 -26 -40 -61 0 -60 78 -90 121 -47 16 16 20
28 15 52 -10 52 -49 74 -96 56z m65 -64 c0 -54 -57 -59 -76 -7 -6 17 -3 28 12
43 18 18 23 19 42 6 14 -9 22 -25 22 -42z"/>
<path d="M1705 326 c-22 -16 -26 -76 -6 -100 16 -19 91 -22 109 -4 7 7 12 22
12 35 0 19 -5 23 -30 23 -16 0 -30 -4 -30 -10 0 -5 7 -10 16 -10 24 0 11 -24
-15 -28 -42 -7 -69 46 -39 76 15 15 55 16 60 0 2 -6 10 -8 17 -4 9 6 9 11 0
22 -15 18 -70 18 -94 0z"/>
</g>
</svg>
